<svg width="121" height="54.74304" viewBox="32.25 9.6 38.5 31.7952" fill="none" xmlns="http://www.w3.org/2000/svg">
<path fill-rule="evenodd" clip-rule="evenodd" d="M47.6921 19.6031C50.942 18.478 54.1766 18.9728 54.9169 20.7071L54.9171 20.7069C54.9502 20.7854 54.9792 20.865 55 20.9457C53.0746 21.3859 51.0291 21.9751 48.9656 22.69C46.9325 23.3937 45.0017 24.1783 43.2642 25C43.2213 24.9292 43.1853 24.8559 43.1522 24.7812C42.4119 23.0456 44.4436 20.7283 47.6921 19.6031ZM44.5719 23.2981C44.5719 23.2868 44.5719 23.2758 44.5734 23.2645L44.5732 23.2647V23.2633C44.5829 22.914 44.4973 22.6206 44.3715 22.5945C44.2375 22.5659 44.109 22.8505 44.0842 23.2298C44.0592 23.6089 44.1476 23.9396 44.2816 23.9669C44.41 23.9944 44.5329 23.7358 44.5647 23.3827C44.5653 23.3788 44.5656 23.3748 44.566 23.371L44.566 23.371C44.5663 23.3664 44.5667 23.3619 44.5675 23.3578C44.5675 23.3534 44.5679 23.3491 44.5682 23.3448L44.5682 23.3448C44.5686 23.3404 44.569 23.3361 44.569 23.3317C44.5704 23.3218 44.5704 23.3118 44.5704 23.3006C44.5719 23.3006 44.5719 23.2994 44.5719 23.2981ZM49.0579 22.0175C48.9033 22.0349 48.5814 21.6084 48.3412 21.0677C48.0994 20.5269 48.029 20.0743 48.1836 20.0581C48.3299 20.0432 48.6215 20.4174 48.8575 20.911V20.9121C48.8616 20.9215 48.866 20.9308 48.8704 20.9399C48.8736 20.9466 48.8767 20.9531 48.8796 20.9594L48.8809 20.962C48.8813 20.963 48.8816 20.9637 48.8823 20.9644C48.8855 20.9711 48.8884 20.9779 48.8912 20.9845L48.8912 20.9845C48.8946 20.9925 48.8979 21.0004 48.9016 21.0079L48.9182 21.0452C48.9209 21.0514 48.9234 21.0573 48.9258 21.0632L48.9258 21.0632C48.9283 21.0691 48.9307 21.075 48.9334 21.0812C49.1489 21.5897 49.2055 22.0024 49.0577 22.0173L49.0579 22.0175ZM52.877 20.487C53.1615 20.7668 53.486 20.9409 53.6007 20.8737L53.6009 20.8736C53.7114 20.809 53.5926 20.5504 53.3329 20.2818C53.3301 20.2787 53.327 20.2756 53.3238 20.2725C53.3207 20.2694 53.3176 20.2663 53.3148 20.2631C53.3117 20.2602 53.3088 20.2574 53.306 20.2545C53.3026 20.2511 53.2993 20.2478 53.2955 20.2444C53.2914 20.2407 53.2876 20.237 53.2838 20.2333C53.28 20.2295 53.2761 20.2258 53.272 20.2221C53.272 20.2212 53.2715 20.2209 53.2707 20.2205C53.2702 20.2203 53.2698 20.22 53.2692 20.2196C53.2654 20.2156 53.2615 20.2118 53.2577 20.2081C53.2533 20.2038 53.2488 20.1995 53.2444 20.1948H53.243C52.9722 19.9436 52.6795 19.7945 52.5703 19.8579C52.4543 19.9251 52.5924 20.206 52.877 20.487Z" fill="#00D059"/>
<path d="M45 35L44.9411 35.0188L32.3672 38.9868C32.1851 39.0441 32 38.9078 32 38.7162V38.7162C32 38.5981 32.0728 38.4925 32.183 38.4509L39.9899 35.4994C40.0113 35.5008 40.0314 35.5021 40.0528 35.5021C40.2025 35.5089 40.3563 35.5101 40.5142 35.5101C41.0813 35.5101 41.7018 35.4753 42.3745 35.4054C43.1676 35.3222 44.0156 35.1919 44.9023 35.0188C44.9343 35.0134 44.9678 35.0066 44.9998 35H45Z" fill="#00D059"/>
<path d="M36.9998 34.6793C35.4663 35.1173 33.9437 35.5523 32.4282 35.9861C32.2156 36.047 32 35.9004 32 35.6952V35.6952C32 35.5683 32.0854 35.4546 32.2144 35.4101L36.2893 34C36.4268 34.2135 36.6083 34.4 36.8291 34.5647H36.8306C36.8836 34.6037 36.9378 34.6415 36.9959 34.6769C36.9974 34.6782 36.9974 34.6793 37 34.6793H36.9998Z" fill="#00D059"/>
<path d="M36 31.0002C35.9251 31.1467 35.8611 31.2932 35.8079 31.4372C35.7522 31.5889 35.7088 31.7354 35.6775 31.882L32.3105 32.9885C32.1561 33.0393 32 32.9153 32 32.7421V32.7421C32 32.6337 32.0632 32.5368 32.1581 32.4997L35.9998 31L36 31.0002Z" fill="#00D059"/>
<path d="M64.9242 22.1798C64.1593 20.2073 57.822 20.7712 50.5366 23.4005H50.534C50.21 23.5189 49.8819 23.64 49.5529 23.7664C49.4454 23.806 49.3373 23.8487 49.2312 23.8901C41.7088 26.8173 36.2888 30.7858 37.076 32.8194C37.6931 34.4155 41.954 34.3516 47.4129 32.8792C47.4129 32.8792 49.2433 32.4416 51.7104 31.5585C49.8591 32.1773 48.3872 32.4025 48.2512 32.0504C48.0917 31.6408 49.8056 30.6059 52.0766 29.7389C54.3474 28.8706 56.3184 28.4978 56.4765 28.9089C56.6148 29.2649 55.3263 30.099 53.4855 30.8837C54.7894 30.3579 56.1787 29.7272 57.5183 28.9905C62.4322 26.4806 65.5319 23.7513 64.9242 22.1794V22.1798Z" fill="#00D059"/>
</svg>
