<?xml version="1.0" encoding="utf-8"?>
<!-- Generator: Adobe Illustrator 27.1.0, SVG Export Plug-In . SVG Version: 6.00 Build 0)  -->
<svg version="1.1" id="Layer_1" xmlns="http://www.w3.org/2000/svg" xmlns:xlink="http://www.w3.org/1999/xlink" x="0px" y="0px"
	 viewBox="0 0 1080 1080" style="enable-background:new 0 0 1080 1080;" xml:space="preserve">
<g>
	<path d="M1015.3,464.4h-22.4c-2.2,0-4.3,1.1-5.6,2.8l-37.9,52.1c-3.7,5.1-11.2,5.1-14.9,0l-37.9-52.1c-1.3-1.8-3.4-2.8-5.6-2.8
		h-22.6c-3.8,0-6.8,3.1-6.8,6.8v138c0,3.8,3.1,6.8,6.8,6.8h14.9c3.8,0,6.8-3.1,6.8-6.8V529c0-7.3,9.4-10.4,13.7-4.5l30.6,41.9
		l1.1,1.6c0,0,0,0,0,0.1c1.3,1.7,3.4,2.8,5.7,2.8c2.1,0,4-0.9,5.3-2.4l0.7-0.9l32.5-43.3c4.4-5.8,13.6-2.7,13.6,4.5v80.4
		c0,3.8,3.1,6.8,6.8,6.8h14.9c3.8,0,6.8-3.1,6.8-6.8V471.2C1022.1,467.5,1019,464.4,1015.3,464.4z"/>
	<path d="M367.5,606.2l-61.8-137.9c-1.1-2.5-3.6-4.1-6.3-4.1h-11.1h-11.1c-2.7,0-5.2,1.6-6.3,4.1l-61.8,137.9
		c-2,4.5,1.3,9.6,6.3,9.6h16c2.7,0,5.1-1.6,6.2-4l6.7-14.7c2.8-6.1,8.8-10,15.5-10h28.7h28.7c6.7,0,12.7,3.9,15.5,10l6.7,14.7
		c1.1,2.4,3.5,4,6.2,4h16C366.2,615.8,369.5,610.7,367.5,606.2z M305.9,560.6h-17.7h-17.7c-4.9,0-8.2-5-6.3-9.6l17.7-40.6
		c1.2-2.7,3.7-4.1,6.3-4.1c2.5,0,5.1,1.4,6.3,4.1l17.7,40.6C314.1,555.5,310.8,560.6,305.9,560.6z"/>
	<path d="M850.3,606.2l-61.8-137.9c-1.1-2.5-3.6-4.1-6.3-4.1H771h-11.1c-2.7,0-5.2,1.6-6.3,4.1l-61.8,137.9c-2,4.5,1.3,9.6,6.3,9.6
		h16c2.7,0,5.1-1.6,6.2-4l6.7-14.7c2.8-6.1,8.8-10,15.5-10H771h28.7c6.7,0,12.7,3.9,15.5,10l6.7,14.7c1.1,2.4,3.5,4,6.2,4h16
		C849,615.8,852.3,610.7,850.3,606.2z M788.7,560.6H771h-17.7c-4.9,0-8.2-5-6.3-9.6l17.7-40.6c1.2-2.7,3.7-4.1,6.3-4.1
		c2.5,0,5.1,1.4,6.3,4.1L795,551C796.9,555.5,793.6,560.6,788.7,560.6z"/>
	<path d="M407,471.2v137.6c0,3.9-3.1,7-7,7h-14.4c-3.9,0-7-3.1-7-7V471.2c0-3.9,3.1-7,7-7H400C403.8,464.2,407,467.3,407,471.2z"/>
	<path d="M542.3,471.2v12c0,3.9-3.1,7-7,7h-30.9c-5.7,0-10.2,4.6-10.2,10.2v108.4c0,3.9-3.1,7-7,7h-14.6c-3.9,0-7-3.1-7-7V500.4
		c0-5.7-4.6-10.2-10.2-10.2h-30.9c-3.9,0-7-3.1-7-7v-12c0-3.9,3.1-7,7-7h110.8C539.2,464.2,542.3,467.3,542.3,471.2z"/>
	<path d="M678.6,604.1l-29.7-33.5c-3.3-3.7-2-9.6,2.6-11.4c21-8.3,28.2-26.6,28.2-44.7c0-26.2-18.8-50-54.6-50.2
		c-21.7,0-43.5-0.2-65.2-0.2c-3.8,0-6.9,3.1-6.9,6.9v137.9c0,3.9,3.1,7,7,7h14.6c3.9,0,7-3.1,7-7V573c0-4.3,3.5-7.8,7.9-7.8h12.7
		c4.4,0,8.6,1.9,11.5,5.2l37.5,43.1c1.3,1.5,3.2,2.4,5.2,2.4h16.8C679.4,615.8,682.6,608.6,678.6,604.1z M625.1,539.3h-36.8
		c-3.7,0-6.8-3-6.8-6.8v-35c0-3.7,3-6.8,6.8-6.8h36.8c18,0,26,12.1,26,24.3C651.1,527.2,643.3,539.3,625.1,539.3z"/>
	<path d="M407,471.2v137.6c0,3.9-3.1,7-7,7h-14.4c-3.9,0-7-3.1-7-7V471.2c0-3.9,3.1-7,7-7H400C403.8,464.2,407,467.3,407,471.2z"/>
	<g>
		<path d="M190.2,464.2h-14.1c-3.8,0-6.9,3.1-6.9,6.9v57.4c0,13.4-17,19.3-25.3,8.7l-53.1-67.6c-2.7-3.4-6.8-5.4-11.1-5.4H65.3
			c-4.1,0-7.4,3.3-7.4,7.4v69.2l8.2-3c-0.2,0.3-0.3,0.6-0.4,0.8v0c-0.1,0.3-0.2,0.6-0.3,0.8l-7.5,2.3v3.9l0,0l8-3
			c0.3,0.4,0.6,0.8,1,1.1c0,0,0,0,0,0c0.1,0.1,0.2,0.2,0.3,0.2c0,0,0,0,0,0c-3.1,1-6.2,1.9-9.3,2.9v4.1l14.8-5.6c0,0,0.1,0,0.1,0
			c0.3,0,0.6,0,0.9,0c1,0,2.2-0.1,3.4-0.2c1.5-0.2,3-0.4,4.7-0.7c0.1,0,0.1,0,0.2,0l-0.1,0l-23.9,7.5v56.5c0,3.9,3.1,7,7,7h14.6
			c3.9,0,7-3.1,7-7v-67.1c-10.1,2.7-17.9,2.9-19.1-0.1c-1.5-3.8,8.5-11.1,22.4-16.6c0.2-0.1,0.4-0.2,0.6-0.2
			c0.6-0.2,1.2-0.5,1.8-0.7c0,0,0,0,0,0c13.4-4.9,25.1-5.9,26.5-2.3c1.1,2.9-4.6,8-13.7,12.6l49.7,63.3l9.9,12.7
			c2.7,3.4,6.8,5.4,11.2,5.4h14.8c3.9,0,7-3.1,7-7V471.8C197.8,467.6,194.4,464.2,190.2,464.2z M89.7,522.6c-3.6,1.4-7.1,3-10.2,4.6
			c-0.1-0.1-0.1-0.3-0.2-0.4c-1.3-3.4,2.3-8.1,8.1-10.3c5.8-2.2,11.6-1.3,12.9,2.2c0.1,0.2,0.1,0.3,0.1,0.5
			C97.1,520,93.4,521.2,89.7,522.6z"/>
		<path d="M95.1,535.6c-4.2,1.6-7.3,3.5-7.1,4.3c0.3,0.7,3.6,0.1,7.5-1.3c0.1,0,0.2-0.1,0.3-0.1c0.1,0,0.2-0.1,0.3-0.1
			c0.1,0,0.2-0.1,0.3-0.1c0,0,0,0,0,0c0.1,0,0.2-0.1,0.4-0.1c0,0,0,0,0,0c3.8-1.5,6.6-3.3,6.3-4C102.9,533.3,99.3,534,95.1,535.6z"
			/>
		<path d="M89.6,519.3C89.6,519.3,89.6,519.3,89.6,519.3c0-0.1-0.1-0.1-0.1-0.2c0,0,0,0,0,0c0,0,0-0.1,0-0.1c0,0,0,0,0,0
			c-0.4-1-0.9-1.7-1.2-1.7c-0.3,0-0.2,0.9,0.3,2c0.4,1.1,1,1.9,1.3,1.9C90.1,521.2,90,520.4,89.6,519.3
			C89.6,519.4,89.6,519.4,89.6,519.3z"/>
		<path d="M81.5,522.4c-0.2-0.1-0.5,0.5-0.5,1.3c0,0.8,0.1,1.4,0.4,1.5c0.2,0.1,0.4-0.5,0.5-1.2c0,0,0,0,0-0.1c0,0,0,0,0-0.1
			c0,0,0,0,0-0.1c0,0,0,0,0,0c0,0,0,0,0-0.1c0,0,0,0,0,0C81.9,523,81.7,522.5,81.5,522.4z"/>
		<path d="M97.5,517.8C97.5,517.8,97.5,517.7,97.5,517.8C97.4,517.7,97.4,517.7,97.5,517.8C97.4,517.7,97.4,517.7,97.5,517.8
			c-0.1-0.1-0.1-0.1-0.1-0.1c0,0,0,0,0,0c-0.5-0.5-1-0.8-1.2-0.7c-0.2,0.1,0,0.7,0.5,1.2c0.5,0.6,1.1,0.9,1.3,0.8
			C98.2,518.9,98,518.3,97.5,517.8C97.5,517.8,97.5,517.8,97.5,517.8z"/>
	</g>
</g>
</svg>
